<svg xmlns="http://www.w3.org/2000/svg" viewBox="0 0 32 32" width="32" height="32">
  <defs>
    <linearGradient id="iconGrad" x1="0%" y1="0%" x2="100%" y2="100%">
      <stop offset="0%" style="stop-color:#a855f7"/>
      <stop offset="100%" style="stop-color:#ec4899"/>
    </linearGradient>
  </defs>

  <!-- Head/Pin shape outline -->
  <path d="M16 2
           C 9 2, 4 7, 4 13.5
           C 4 18, 6 22, 9 25
           C 10.5 26.5, 12 28, 12 29.5
           L 12 30
           C 12 30.6, 12.4 31, 13 31
           L 19 31
           C 19.6 31, 20 30.6, 20 30
           L 20 29.5
           C 20 28, 21.5 26.5, 23 25
           C 26 22, 28 18, 28 13.5
           C 28 7, 23 2, 16 2 Z"
        fill="url(#iconGrad)"
        stroke="white"
        stroke-width="0.5"
        opacity="0.95"/>

  <!-- Neural nodes (simplified for favicon) -->
  <!-- Central node -->
  <circle cx="16" cy="12" r="2.5" fill="white"/>
  
  <!-- Top nodes -->
  <circle cx="12" cy="8" r="1.5" fill="white" opacity="0.9"/>
  <circle cx="20" cy="8" r="1.5" fill="white" opacity="0.9"/>
  
  <!-- Middle nodes -->
  <circle cx="9" cy="14" r="1.3" fill="white" opacity="0.85"/>
  <circle cx="23" cy="14" r="1.3" fill="white" opacity="0.85"/>
  
  <!-- Lower nodes -->
  <circle cx="12" cy="18" r="1.5" fill="white" opacity="0.9"/>
  <circle cx="20" cy="18" r="1.5" fill="white" opacity="0.9"/>

  <!-- Neural connections -->
  <g stroke="white" stroke-width="0.6" fill="none" opacity="0.7">
    <line x1="16" y1="10" x2="12" y2="9.2"/>
    <line x1="16" y1="10" x2="20" y2="9.2"/>
    <line x1="14" y1="12.5" x2="10" y2="14"/>
    <line x1="18" y1="12.5" x2="22" y2="14"/>
    <line x1="16" y1="14" x2="12" y2="16.8"/>
    <line x1="16" y1="14" x2="20" y2="16.8"/>
  </g>
</svg>
